<?xml version="1.0" encoding="utf-8"?>
<!-- Generator: Adobe Illustrator 21.0.0, SVG Export Plug-In . SVG Version: 6.00 Build 0)  -->
<svg version="1.1" id="Layer_1" xmlns="http://www.w3.org/2000/svg" xmlns:xlink="http://www.w3.org/1999/xlink" x="0px" y="0px"
	 viewBox="0 0 380 56" style="enable-background:new 0 0 380 56;" xml:space="preserve">
<style type="text/css">
	.st0{fill:#FF2B06;}
	.st1{fill:#FFFFFF;}
</style>
<g>
	<path class="st0" d="M3.4,49.1L1,45.6h2.3l1.3,1.9l1.3-1.9h2.2L5.7,49l2.7,4H6.1l-1.5-2.3L3,53H0.7L3.4,49.1z"/>
	<path class="st1" d="M18,48.6h-7.2v-1.5H18V48.6z M18,51.6h-7.2v-1.5H18V51.6z"/>
	<path class="st1" d="M23.6,44.4h-2v-1.7h2V44.4z M21.5,45.6h2V53h-2V45.6z"/>
	<path class="st1" d="M24.9,45.6h1.9v1l0,0c0.5-0.8,1.4-1.2,2.3-1.2c2.2,0,2.7,1.2,2.7,3V53h-2v-4.2c0-1.2-0.4-1.8-1.3-1.8
		c-1.1,0-1.6,0.6-1.6,2.1V53h-2V45.6z"/>
	<path class="st1" d="M38.3,52L38.3,52c-0.5,0.8-1.3,1.1-2.3,1.1c-2.2,0-3.3-1.9-3.3-4c0-2,1.1-3.8,3.3-3.8c0.9,0,1.7,0.4,2.2,1.1
		l0,0l0,0v-3.7h2V53h-1.9V52z M36.5,46.9c-1.3,0-1.8,1.1-1.8,2.4c0,1.2,0.5,2.4,1.8,2.4s1.7-1.2,1.7-2.4
		C38.3,48,37.9,46.9,36.5,46.9z"/>
	<path class="st1" d="M43.2,49.8c0.1,1.3,0.7,1.9,1.8,1.9c0.8,0,1.5-0.5,1.6-1h1.8c-0.6,1.7-1.8,2.5-3.5,2.5c-2.3,0-3.8-1.6-3.8-3.9
		c0-2.2,1.5-3.9,3.8-3.9c2.5,0,3.7,2.1,3.6,4.4H43.2z M46.5,48.5c-0.2-1-0.6-1.6-1.6-1.6c-1.3,0-1.7,1-1.7,1.6H46.5z"/>
	<path class="st1" d="M49.4,45.6h1.9v0.9l0,0c0.5-0.8,1.3-1.1,2.2-1.1c2.3,0,3.4,1.9,3.4,4c0,2-1.1,3.8-3.2,3.8
		c-0.9,0-1.7-0.4-2.2-1.1l0,0v3.5h-2v-10C49.5,45.6,49.4,45.6,49.4,45.6z M54.9,49.3c0-1.2-0.5-2.4-1.8-2.4s-1.8,1.2-1.8,2.4
		s0.5,2.3,1.8,2.3C54.5,51.6,54.9,50.5,54.9,49.3z"/>
	<path class="st1" d="M59.5,49.8c0.1,1.3,0.7,1.9,1.8,1.9c0.8,0,1.5-0.5,1.6-1h1.8c-0.6,1.7-1.8,2.5-3.5,2.5c-2.3,0-3.8-1.6-3.8-3.9
		c0-2.2,1.5-3.9,3.8-3.9c2.5,0,3.7,2.1,3.6,4.4H59.5z M62.8,48.5c-0.2-1-0.6-1.6-1.6-1.6c-1.3,0-1.7,1-1.7,1.6H62.8z"/>
	<path class="st1" d="M65.8,45.6h1.9v1l0,0c0.5-0.8,1.4-1.2,2.3-1.2c2.2,0,2.7,1.2,2.7,3V53h-2v-4.2c0-1.2-0.4-1.8-1.3-1.8
		c-1.1,0-1.6,0.6-1.6,2.1V53h-2V45.6z"/>
	<path class="st1" d="M79.2,52L79.2,52c-0.5,0.8-1.3,1.1-2.3,1.1c-2.2,0-3.3-1.9-3.3-4c0-2,1.1-3.8,3.3-3.8c0.9,0,1.7,0.4,2.2,1.1
		l0,0l0,0v-3.7h2V53h-1.9C79.2,53,79.2,52,79.2,52z M77.4,46.9c-1.3,0-1.8,1.1-1.8,2.4c0,1.2,0.5,2.4,1.8,2.4s1.7-1.2,1.7-2.4
		C79.2,48,78.7,46.9,77.4,46.9z"/>
	<path class="st1" d="M84,49.8c0.1,1.3,0.7,1.9,1.8,1.9c0.8,0,1.5-0.5,1.6-1h1.8c-0.6,1.7-1.8,2.5-3.5,2.5c-2.3,0-3.8-1.6-3.8-3.9
		c0-2.2,1.5-3.9,3.8-3.9c2.5,0,3.7,2.1,3.6,4.4H84z M87.3,48.5c-0.2-1-0.6-1.6-1.6-1.6c-1.3,0-1.7,1-1.7,1.6H87.3z"/>
	<path class="st1" d="M90.3,45.6h1.9v1l0,0c0.5-0.8,1.4-1.2,2.3-1.2c2.2,0,2.7,1.2,2.7,3V53h-2v-4.2c0-1.2-0.4-1.8-1.3-1.8
		c-1.1,0-1.6,0.6-1.6,2.1V53h-2V45.6z"/>
	<path class="st1" d="M101,45.6h1.5V47H101v3.7c0,0.7,0.2,0.9,0.9,0.9c0.2,0,0.4,0,0.6-0.1V53c-0.3,0.1-0.8,0.1-1.2,0.1
		c-1.2,0-2.3-0.3-2.3-1.8v-4.4h-1.2v-1.4H99v-2.2h2V45.6z"/>
	<path class="st1" d="M103.3,42.8h2V53h-2V42.8z"/>
	<path class="st1" d="M110.2,53.9c-0.4,1.2-1.1,1.7-2.5,1.7c-0.4,0-0.8,0-1.2-0.1v-1.7c0.4,0,0.8,0.1,1.2,0.1
		c0.7-0.1,0.9-0.8,0.7-1.4l-2.6-6.9h2.2l1.7,5.1l0,0l1.6-5.1h2.1L110.2,53.9z"/>
	<path class="st1" d="M121,45.4c2.3,0,3.8,1.5,3.8,3.9c0,2.3-1.5,3.9-3.8,3.9s-3.8-1.5-3.8-3.9S118.7,45.4,121,45.4z M121,51.6
		c1.4,0,1.8-1.2,1.8-2.4s-0.4-2.4-1.8-2.4s-1.8,1.2-1.8,2.4C119.2,50.4,119.6,51.6,121,51.6z"/>
	<path class="st1" d="M125.6,45.6h1.9V47l0,0c0.4-0.9,1.4-1.6,2.4-1.6c0.1,0,0.3,0,0.4,0.1v1.9c-0.2,0-0.5-0.1-0.7-0.1
		c-1.5,0-2,1.1-2,2.4V53h-2C125.6,53,125.6,45.6,125.6,45.6z"/>
	<path class="st1" d="M137.9,52.5c0,1.2-0.4,3.3-3.8,3.3c-1.5,0-3.2-0.7-3.3-2.4h2c0.2,0.8,0.8,1,1.5,1c1.1,0,1.6-0.8,1.6-1.8v-1
		l0,0c-0.4,0.8-1.3,1.1-2.2,1.1c-2.2,0-3.2-1.7-3.2-3.7c0-1.9,1.1-3.7,3.2-3.7c1,0,1.7,0.3,2.2,1.2l0,0v-1h1.9v7
		C137.8,52.5,137.9,52.5,137.9,52.5z M136,49.2c0-1.2-0.4-2.3-1.7-2.3c-1.1,0-1.6,1-1.6,2.1s0.4,2.2,1.6,2.2
		C135.4,51.2,136,50.2,136,49.2z"/>
	<path class="st1" d="M138.9,47.8c0.1-1.9,1.8-2.5,3.5-2.5c1.5,0,3.2,0.3,3.2,2.1v3.8c0,0.7,0.1,1.3,0.3,1.6h-2.1
		c-0.1-0.2-0.1-0.5-0.1-0.7c-0.6,0.7-1.6,0.9-2.5,0.9c-1.4,0-2.5-0.7-2.5-2.2c0-1.7,1.3-2.1,2.5-2.2c1.2-0.2,2.4-0.1,2.4-1
		s-0.6-1-1.3-1c-0.8,0-1.3,0.3-1.3,1.1h-2.1L138.9,47.8L138.9,47.8z M143.6,49.3c-0.3,0.3-1.1,0.3-1.7,0.4c-0.6,0.1-1.2,0.3-1.2,1.1
		s0.6,0.9,1.2,0.9c1.6,0,1.6-1.3,1.6-1.7L143.6,49.3L143.6,49.3z"/>
	<path class="st1" d="M146.9,45.6h1.9v1l0,0c0.5-0.8,1.4-1.2,2.3-1.2c2.2,0,2.7,1.2,2.7,3V53h-2v-4.2c0-1.2-0.4-1.8-1.3-1.8
		c-1.1,0-1.6,0.6-1.6,2.1V53h-2L146.9,45.6L146.9,45.6z"/>
	<path class="st1" d="M156.9,44.4h-2v-1.7h2V44.4z M154.9,45.6h2V53h-2V45.6z"/>
	<path class="st1" d="M157.7,51.4l3.8-4.3H158v-1.5h6.2v1.5l-3.8,4.3h4.1V53h-6.8V51.4z"/>
	<path class="st1" d="M167,49.8c0.1,1.3,0.7,1.9,1.8,1.9c0.8,0,1.5-0.5,1.6-1h1.8c-0.6,1.7-1.8,2.5-3.5,2.5c-2.3,0-3.8-1.6-3.8-3.9
		c0-2.2,1.5-3.9,3.8-3.9c2.5,0,3.7,2.1,3.6,4.4H167z M170.3,48.5c-0.2-1-0.6-1.6-1.6-1.6c-1.3,0-1.7,1-1.7,1.6H170.3z"/>
	<path class="st1" d="M178.5,52L178.5,52c-0.5,0.8-1.3,1.1-2.3,1.1c-2.2,0-3.3-1.9-3.3-4c0-2,1.1-3.8,3.3-3.8c0.9,0,1.7,0.4,2.2,1.1
		l0,0l0,0v-3.7h2V53h-1.9V52z M176.7,46.9c-1.3,0-1.8,1.1-1.8,2.4c0,1.2,0.5,2.4,1.8,2.4s1.7-1.2,1.7-2.4
		C178.5,48,178.1,46.9,176.7,46.9z"/>
	<path class="st1" d="M187.8,44.6h-3.1v-1.9h8.4v1.9H190V53h-2.2V44.6L187.8,44.6z"/>
	<path class="st1" d="M194,42.8h7.6v1.9h-5.4v2.2h4.9v1.7h-4.9v2.5h5.5V53H194V42.8z"/>
	<path class="st1" d="M202.7,42.8h4.4c2.6,0,4.6,1.7,4.6,5c0,3-1.5,5.2-4.6,5.2h-4.4V42.8z M204.9,51.1h2c1.3,0,2.5-0.8,2.5-3.1
		c0-2.1-0.7-3.4-2.9-3.4h-1.6V51.1z"/>
	<path class="st1" d="M218.1,49.8c0.1,1.3,0.7,1.9,1.8,1.9c0.8,0,1.5-0.5,1.6-1h1.8c-0.6,1.7-1.8,2.5-3.5,2.5
		c-2.3,0-3.8-1.6-3.8-3.9c0-2.2,1.5-3.9,3.8-3.9c2.5,0,3.7,2.1,3.6,4.4H218.1z M221.4,48.5c-0.2-1-0.6-1.6-1.6-1.6
		c-1.3,0-1.7,1-1.7,1.6H221.4z"/>
	<path class="st1" d="M228.2,53h-2.3l-2.5-7.4h2.1l1.6,5l0,0l1.6-5h2L228.2,53z"/>
	<path class="st1" d="M232.6,49.8c0.1,1.3,0.7,1.9,1.8,1.9c0.8,0,1.5-0.5,1.6-1h1.8c-0.6,1.7-1.8,2.5-3.5,2.5
		c-2.3,0-3.8-1.6-3.8-3.9c0-2.2,1.5-3.9,3.8-3.9c2.5,0,3.7,2.1,3.6,4.4H232.6z M235.9,48.5c-0.2-1-0.6-1.6-1.6-1.6
		c-1.3,0-1.7,1-1.7,1.6H235.9z"/>
	<path class="st1" d="M238.9,45.6h1.9v1l0,0c0.5-0.8,1.4-1.2,2.3-1.2c2.2,0,2.7,1.2,2.7,3V53h-2v-4.2c0-1.2-0.4-1.8-1.3-1.8
		c-1.1,0-1.6,0.6-1.6,2.1V53h-2L238.9,45.6L238.9,45.6z"/>
	<path class="st1" d="M249.6,45.6h1.5V47h-1.5v3.7c0,0.7,0.2,0.9,0.9,0.9c0.2,0,0.4,0,0.6-0.1V53c-0.3,0.1-0.8,0.1-1.2,0.1
		c-1.2,0-2.3-0.3-2.3-1.8v-4.4h-1.2v-1.4h1.2v-2.2h2V45.6z"/>
	<g>
		<g>
			<path class="st0" d="M9.5,9H0V0.3h29.5V9H20v25.3H9.5V9z"/>
			<path class="st0" d="M31.1,0.3h28.6V9H41.6v4.2h18.2v8.1H41.6v4.2h18.2v8.7H31.1V0.3z"/>
			<path class="st0" d="M61.5,0.3h17.2C90,0.3,94,8.7,94,17.2c0,10.4-5.5,17-17.4,17H61.5V0.3z M71.9,25.6H76c6.5,0,7.5-5.3,7.5-8.5
				c0-2.1-0.7-8.1-8.2-8.1H72L71.9,25.6L71.9,25.6z"/>
		</g>
		<g>
			<g>
				<path class="st0" d="M109,21.2l-3.2-5.3l-3.1,5.3H95l7.3-10.7l-7-10.2h7.7l2.8,5.1l2.9-5.1h7.7l-7,10.2l7.3,10.7H109z"/>
			</g>
		</g>
	</g>
	<g>
		<path class="st1" d="M125.3,0.4h15.4c2.5,0,4.6,0.4,6.3,1.1c3.1,1.4,4.7,4.1,4.7,8c0,2-0.4,3.7-1.3,5c-0.8,1.3-2,2.3-3.5,3.1
			c1.3,0.5,2.3,1.2,3,2.1s1,2.3,1.1,4.3l0.2,4.5c0,1.3,0.2,2.2,0.3,2.9c0.3,1.1,0.8,1.8,1.5,2.1v0.8h-5.6c-0.2-0.3-0.3-0.7-0.4-1.1
			c-0.1-0.5-0.2-1.4-0.2-2.7l-0.3-5.6c-0.1-2.2-0.9-3.7-2.4-4.4c-0.9-0.4-2.2-0.6-4-0.6H130v14.5h-4.6L125.3,0.4L125.3,0.4z
			 M140.2,15.9c2.1,0,3.7-0.4,5-1.3c1.2-0.9,1.8-2.4,1.8-4.6c0-2.4-0.9-4.1-2.6-4.9c-0.9-0.5-2.1-0.7-3.6-0.7h-10.9V16h10.3V15.9z"
			/>
		<path class="st1" d="M162.4,9.6V26c0,1.3,0.2,2.3,0.6,3.1c0.7,1.5,2.1,2.2,4,2.2c2.8,0,4.7-1.3,5.7-3.9c0.6-1.4,0.8-3.3,0.8-5.7
			V9.6h4.1v24.6h-3.9v-3.6c-0.5,0.9-1.2,1.7-2,2.4c-1.6,1.3-3.4,1.9-5.6,1.9c-3.4,0-5.8-1.2-7-3.5c-0.7-1.3-1-2.9-1-5V9.6H162.4z"/>
		<path class="st1" d="M197.6,19.3c1-0.1,1.6-0.5,1.9-1.2c0.2-0.4,0.3-0.9,0.3-1.6c0-1.4-0.5-2.4-1.5-3.1c-1-0.6-2.4-1-4.3-1
			c-2.2,0-3.7,0.6-4.6,1.8c-0.5,0.6-0.8,1.6-1,2.9h-3.9c0.1-3,1.1-5.2,3-6.4s4.1-1.8,6.6-1.8c2.9,0,5.2,0.6,7.1,1.7
			c1.8,1.1,2.7,2.8,2.7,5.2V30c0,0.4,0.1,0.8,0.3,1s0.5,0.4,1.1,0.4c0.2,0,0.4,0,0.6,0c0.2,0,0.5-0.1,0.7-0.1v3.1
			c-0.6,0.2-1.1,0.3-1.5,0.3c-0.3,0-0.8,0.1-1.4,0.1c-1.4,0-2.5-0.5-3.1-1.5c-0.3-0.5-0.6-1.3-0.7-2.3c-0.8,1.1-2.1,2.1-3.6,2.9
			c-1.6,0.8-3.3,1.2-5.2,1.2c-2.3,0-4.2-0.7-5.6-2.1c-1.4-1.4-2.2-3.1-2.2-5.2c0-2.3,0.7-4.1,2.1-5.3c1.4-1.3,3.3-2,5.6-2.3
			L197.6,19.3z M188.9,30.5c0.9,0.7,1.9,1,3.1,1c1.5,0,2.9-0.3,4.2-1c2.3-1.1,3.5-2.9,3.5-5.5v-3.3c-0.5,0.3-1.2,0.6-2,0.8
			c-0.8,0.2-1.6,0.4-2.3,0.5l-2.5,0.3c-1.5,0.2-2.6,0.5-3.4,0.9c-1.3,0.7-1.9,1.9-1.9,3.4C187.6,28.9,188.1,29.8,188.9,30.5z"/>
		<path class="st1" d="M211.6,0.4h15.1c3,0,5.4,0.8,7.2,2.5s2.8,4.1,2.8,7.1c0,2.6-0.8,4.9-2.5,6.9c-1.6,2-4.2,2.9-7.5,2.9h-10.6
			v14.3h-4.6V0.4H211.6z M229.4,5.1c-1-0.5-2.4-0.7-4.1-0.7h-9v11.7h9c2,0,3.7-0.4,5-1.3c1.3-0.9,1.9-2.4,1.9-4.6
			C232.1,7.6,231.2,5.9,229.4,5.1z"/>
		<path class="st1" d="M260,12c2.2,2.1,3.3,5.2,3.3,9.3c0,4-1,7.3-2.9,9.8c-1.9,2.6-4.9,3.9-8.9,3.9c-3.4,0-6-1.1-8-3.4
			s-3-5.4-3-9.2c0-4.1,1-7.4,3.1-9.9s4.9-3.7,8.4-3.7C255.1,8.8,257.8,9.9,260,12z M257.4,28.4c1-2.1,1.5-4.4,1.5-6.9
			c0-2.3-0.4-4.2-1.1-5.6c-1.2-2.3-3.1-3.4-6-3.4c-2.5,0-4.3,1-5.5,2.9c-1.1,1.9-1.7,4.3-1.7,7c0,2.6,0.6,4.8,1.7,6.6
			c1.1,1.7,2.9,2.6,5.4,2.6C254.5,31.5,256.4,30.5,257.4,28.4z"/>
		<path class="st1" d="M268.4,9.6h3.9v4.3c0.3-0.8,1.1-1.8,2.4-3s2.7-1.8,4.3-1.8c0.1,0,0.2,0,0.4,0c0.2,0,0.5,0,0.9,0.1v4.4
			c-0.2,0-0.5-0.1-0.7-0.1s-0.4,0-0.7,0c-2.1,0-3.7,0.7-4.8,2c-1.1,1.3-1.7,2.9-1.7,4.6v14.2h-4.1V9.6H268.4z"/>
		<path class="st1" d="M284.8,2.7h4.2v6.9h3.9V13H289v16c0,0.9,0.3,1.4,0.9,1.7c0.3,0.2,0.9,0.3,1.6,0.3c0.2,0,0.4,0,0.6,0
			s0.5,0,0.8-0.1v3.3c-0.5,0.1-1,0.2-1.5,0.3s-1.1,0.1-1.7,0.1c-1.9,0-3.2-0.5-3.9-1.5c-0.7-1-1-2.3-1-3.9V12.9h-3.3V9.6h3.3V2.7z"
			/>
		<path class="st1" d="M301.2,9.6V26c0,1.3,0.2,2.3,0.6,3.1c0.7,1.5,2.1,2.2,4,2.2c2.8,0,4.7-1.3,5.7-3.9c0.6-1.4,0.8-3.3,0.8-5.7
			V9.6h4.1v24.6h-3.9v-3.6c-0.5,0.9-1.2,1.7-2,2.4c-1.6,1.3-3.4,1.9-5.6,1.9c-3.4,0-5.8-1.2-7-3.5c-0.7-1.3-1-2.9-1-5V9.6H301.2z"/>
		<path class="st1" d="M337,10.6c0.8,0.5,1.6,1.3,2.4,2.3V9.8h3.8v22.4c0,3.1-0.5,5.6-1.4,7.4c-1.7,3.3-4.9,5-9.7,5
			c-2.6,0-4.9-0.6-6.7-1.8c-1.8-1.2-2.8-3-3-5.6h4.2c0.2,1.1,0.6,2,1.2,2.6c0.9,0.9,2.4,1.4,4.4,1.4c3.2,0,5.2-1.1,6.2-3.4
			c0.6-1.3,0.8-3.7,0.8-7.1c-0.8,1.3-1.8,2.2-3,2.8c-1.2,0.6-2.7,0.9-4.6,0.9c-2.7,0-5-0.9-7-2.8c-2-1.9-3-5-3-9.4
			c0-4.1,1-7.3,3-9.7c2-2.3,4.4-3.5,7.3-3.5C333.9,9.1,335.6,9.6,337,10.6z M337.5,15c-1.3-1.5-2.8-2.2-4.8-2.2
			c-2.9,0-4.9,1.4-6,4.1c-0.6,1.5-0.8,3.4-0.8,5.7c0,2.8,0.6,4.9,1.7,6.3s2.6,2.2,4.5,2.2c3,0,5-1.3,6.3-4c0.7-1.5,1-3.3,1-5.3
			C339.4,18.7,338.8,16.5,337.5,15z"/>
		<path class="st1" d="M362.7,19.3c1-0.1,1.6-0.5,1.9-1.2c0.2-0.4,0.3-0.9,0.3-1.6c0-1.4-0.5-2.4-1.5-3.1c-1-0.6-2.4-1-4.3-1
			c-2.2,0-3.7,0.6-4.6,1.8c-0.5,0.6-0.8,1.6-1,2.9h-3.9c0.1-3,1.1-5.2,3-6.4s4.1-1.8,6.6-1.8c2.9,0,5.2,0.6,7.1,1.7
			c1.8,1.1,2.7,2.8,2.7,5.2V30c0,0.4,0.1,0.8,0.3,1c0.2,0.3,0.5,0.4,1.1,0.4c0.2,0,0.4,0,0.6,0s0.5-0.1,0.7-0.1v3.1
			c-0.6,0.2-1.1,0.3-1.5,0.3c-0.3,0-0.8,0.1-1.4,0.1c-1.4,0-2.5-0.5-3.1-1.5c-0.3-0.5-0.6-1.3-0.7-2.3c-0.8,1.1-2.1,2.1-3.6,2.9
			c-1.6,0.8-3.3,1.2-5.2,1.2c-2.3,0-4.2-0.7-5.6-2.1c-1.4-1.4-2.2-3.1-2.2-5.2c0-2.3,0.7-4.1,2.1-5.3c1.4-1.3,3.3-2,5.6-2.3
			L362.7,19.3z M354,30.5c0.9,0.7,1.9,1,3.1,1c1.5,0,2.9-0.3,4.2-1c2.3-1.1,3.5-2.9,3.5-5.5v-3.3c-0.5,0.3-1.2,0.6-2,0.8
			c-0.8,0.2-1.6,0.4-2.3,0.5l-2.5,0.3c-1.5,0.2-2.6,0.5-3.4,0.9c-1.3,0.7-1.9,1.9-1.9,3.4C352.7,28.9,353.1,29.8,354,30.5z"/>
		<path class="st1" d="M375.9,0.4h4.1v33.8h-4.1V0.4z"/>
	</g>
</g>
</svg>
